<?xml version="1.0" standalone="no"?>
<!DOCTYPE svg PUBLIC "-//W3C//DTD SVG 20010904//EN"
 "http://www.w3.org/TR/2001/REC-SVG-20010904/DTD/svg10.dtd">
<svg version="1.0" xmlns="http://www.w3.org/2000/svg"
 width="123.000000pt" height="123.000000pt" viewBox="0 0 123.000000 123.000000"
 preserveAspectRatio="xMidYMid meet">

<g transform="translate(0.000000,123.000000) scale(0.100000,-0.100000)"
fill="#000000" stroke="none">
<path d="M311 1103 c-60 -21 -131 -95 -154 -158 -22 -65 -23 -213 -1 -277 36
-108 137 -178 257 -178 75 0 116 13 163 53 18 15 35 27 38 27 3 0 7 -98 8
-217 l3 -218 42 -3 c51 -4 52 -2 56 148 l2 105 53 -2 c29 -2 77 -10 107 -18
65 -19 95 -13 95 19 0 44 -24 52 -95 33 -35 -9 -86 -17 -114 -17 l-51 0 0 166
0 166 78 -4 c60 -3 97 -12 169 -42 75 -31 95 -35 112 -26 23 12 28 49 9 68 -8
8 -65 12 -190 12 -161 0 -179 2 -184 18 -15 47 -15 47 -150 48 -116 0 -120 0
-39 -5 l90 -6 3 -91 c3 -87 1 -93 -24 -123 -54 -65 -151 -89 -227 -57 -42 17
-100 84 -116 133 -7 21 -15 75 -18 119 -6 92 7 163 43 236 44 88 147 122 233
78 51 -25 78 -61 97 -127 18 -61 43 -81 80 -64 70 31 -24 172 -137 205 -66 20
-180 19 -238 -1z"/>
</g>
</svg>
